<?xml version="1.0" encoding="utf-8"?>
<svg xmlns="http://www.w3.org/2000/svg" viewBox="0 32.0191 544 448.0059" width="544px" height="448.006px">
  <path d="M 473.1 107 C 516.3 142.2 544 195.9 544 256 C 544 316.1 516.3 369.8 473.1 405 C 462.8 413.4 447.7 411.8 439.3 401.5 C 430.9 391.2 432.5 376.1 442.8 367.7 C 475.3 341.3 496 301.1 496 256 C 496 210.9 475.3 170.7 442.8 144.2 C 432.5 135.8 431 120.7 439.3 110.4 C 447.6 100.1 462.8 98.6 473.1 106.9 L 473.1 107 Z M 412.6 181.5 C 434.1 199.1 448 225.9 448 256 C 448 286.1 434.1 312.9 412.6 330.5 C 402.3 338.9 387.2 337.3 378.8 327 C 370.4 316.7 372 301.6 382.3 293.2 C 393.1 284.4 400 271 400 256 C 400 241 393.1 227.6 382.3 218.7 C 372 210.3 370.5 195.2 378.8 184.9 C 387.1 174.6 402.3 173.1 412.6 181.4 L 412.6 181.5 Z M 301.1 34.8 C 312.6 40 320 51.4 320 64 L 320 448 C 320 460.6 312.6 472 301.1 477.2 C 289.6 482.4 276.1 480.3 266.7 471.9 L 131.8 352 L 64 352 C 28.7 352 0 323.3 0 288 L 0 224 C 0 188.7 28.7 160 64 160 L 131.8 160 L 266.7 40.1 C 276.1 31.7 289.6 29.7 301.1 34.8 Z"/>
</svg>