<?xml version="1.0" encoding="utf-8"?>
<svg xmlns="http://www.w3.org/2000/svg" viewBox="0 27.0493 640 457.8432" width="640px" height="457.843px">
  <path d="M 412.6 181.5 C 434.1 199.1 448 225.9 448 256 C 448 286.1 434.1 312.9 412.6 330.5 C 402.3 338.9 387.2 337.3 378.8 327 C 370.4 316.7 372 301.6 382.3 293.2 C 393.1 284.4 400 271 400 256 C 400 241 393.1 227.6 382.3 218.7 C 372 210.3 370.5 195.2 378.8 184.9 C 387.1 174.6 402.3 173.1 412.6 181.4 L 412.6 181.5 Z M 301.1 34.8 C 312.6 40 320 51.4 320 64 L 320 448 C 320 460.6 312.6 472 301.1 477.2 C 289.6 482.4 276.1 480.3 266.7 471.9 L 131.8 352 L 64 352 C 28.7 352 0 323.3 0 288 L 0 224 C 0 188.7 28.7 160 64 160 L 131.8 160 L 266.7 40.1 C 276.1 31.7 289.6 29.7 301.1 34.8 Z"/>
</svg>